# xmcd CD database file
#
# Track frame offsets:
#	182
#	14707
#	35777
#	57610
#	77662
#	99137
#	116625
#	140185
#	160870
#	183895
#	203487
#
# Disc length: 2907 seconds
#
# Revision: 4
# Processed by: cddbd v1.4PL0 Copyright (c) Steve Scherf et al.
# Submitted via: CDex 1.50
#
DISCID=950b590b
DTITLE=The Jeff Healey Band - Master Hits
DYEAR=1900
DGENRE=
TTITLE0=Confidence Man
TTITLE1=Angel Eyes
TTITLE2=Nice Problem To Have
TTITLE3=See The Light
TTITLE4=House That Love Built
TTITLE5=Hell To Pay
TTITLE6=While My Guitar Gently Weeps
TTITLE7=Cruel Little Number
TTITLE8=Lost In Your Eyes
TTITLE9=Stop Breakin Down
TTITLE10=Communication Breakdown
EXTD=
EXTT0=
EXTT1=
EXTT2=
EXTT3=
EXTT4=
EXTT5=
EXTT6=
EXTT7=
EXTT8=
EXTT9=
EXTT10=
PLAYORDER=
